<?xml version="1.0" encoding="UTF-8" standalone="no"?>
<svg xmlns="http://www.w3.org/2000/svg" width="1042" height="264"><path fill="none" stroke="#7d55c7" stroke-width="8.026" d="M61.781 36.013h140.438c14.275 0 25.768 11.65 25.768 26.119v139.736c0 14.47-11.493 26.119-25.768 26.119H61.781c-14.275 0-25.768-11.65-25.768-26.119V62.132c0-14.47 11.493-26.119 25.768-26.119z"/><path fill="#fff" d="M116 67.999h8v128h-8z" paint-order="markers stroke fill"/><path fill="#7d55c7" d="M132 67.999h24v128h-24z" paint-order="markers stroke fill"/><path fill="#fff" d="M188 67.999h8v128h-8zm-120 0h8v128h-8z" paint-order="markers stroke fill"/><path fill="#7d55c7" d="M84 67.999h24v128H84z" paint-order="markers stroke fill"/><g fill="#fff" stroke-width=".315" font-family="Montserrat" font-size="40" letter-spacing="0" word-spacing="0"><g aria-label="ROAD" font-weight="700" style="line-height:25px;-inkscape-font-specification:'Montserrat Bold'"><path d="M682.16 176.48l-17.157-24.782h-18.937v24.782H625.48V87.52h38.507q11.819 0 20.46 3.94 8.77 3.94 13.472 11.183 4.702 7.244 4.702 17.157 0 9.912-4.83 17.156-4.702 7.117-13.47 10.93l19.952 28.594zm-.382-56.68q0-7.498-4.83-11.438-4.829-4.067-14.106-4.067h-16.775v31.01h16.775q9.277 0 14.107-4.068 4.829-4.066 4.829-11.437zM761.89 178.005q-13.853 0-25.037-5.973-11.056-5.973-17.41-16.394-6.227-10.548-6.227-23.638 0-13.09 6.227-23.51 6.354-10.549 17.41-16.522 11.184-5.973 25.036-5.973 13.853 0 24.909 5.973t17.41 16.521q6.355 10.421 6.355 23.511t-6.354 23.638q-6.355 10.42-17.411 16.394-11.056 5.973-24.909 5.973zm0-17.538q7.878 0 14.233-3.558 6.354-3.686 9.912-10.167 3.686-6.481 3.686-14.742 0-8.26-3.686-14.742-3.558-6.481-9.912-10.04-6.355-3.685-14.234-3.685-7.88 0-14.233 3.685-6.355 3.559-10.04 10.04-3.558 6.481-3.558 14.742 0 8.26 3.558 14.742 3.685 6.481 10.04 10.167 6.354 3.558 14.233 3.558zM883.38 157.417h-41.302l-7.88 19.063h-21.095l39.65-88.96h20.334l39.778 88.96H891.26zm-6.48-15.631l-14.107-34.06-14.107 34.06zM922.094 87.52h40.413q14.488 0 25.544 5.592 11.184 5.465 17.284 15.504 6.227 10.04 6.227 23.384 0 13.344-6.227 23.384-6.1 10.04-17.284 15.631-11.056 5.465-25.544 5.465h-40.413zm39.397 72.058q13.344 0 21.223-7.371 8.006-7.498 8.006-20.207t-8.006-20.08q-7.88-7.498-21.223-7.498h-18.809v55.156z" style="-inkscape-font-specification:'Montserrat Bold'"/></g><g aria-label="SIGNI" font-weight="400" style="line-height:25px;-inkscape-font-specification:Montserrat"><path d="M297.04 177.244q-9.913 0-19.063-3.177-9.023-3.177-13.98-8.388l3.686-7.244q4.83 4.83 12.836 7.88 8.006 2.922 16.52 2.922 11.947 0 17.92-4.32 5.973-4.448 5.973-11.438 0-5.338-3.304-8.515-3.178-3.177-7.88-4.83-4.702-1.778-13.09-3.812-10.04-2.541-16.012-4.829-5.973-2.414-10.294-7.244-4.194-4.829-4.194-13.09 0-6.735 3.559-12.2 3.558-5.591 10.929-8.896 7.37-3.304 18.3-3.304 7.625 0 14.87 2.16 7.37 2.034 12.708 5.72l-3.178 7.497q-5.591-3.685-11.946-5.464-6.354-1.906-12.454-1.906-11.692 0-17.665 4.575-5.846 4.448-5.846 11.564 0 5.338 3.177 8.642 3.305 3.177 8.134 4.956 4.956 1.653 13.217 3.686 9.785 2.415 15.758 4.83 6.1 2.287 10.294 7.116 4.194 4.702 4.194 12.836 0 6.735-3.685 12.327-3.559 5.464-11.057 8.769-7.498 3.177-18.427 3.177zM350.7 87.522h9.404v88.96H350.7zM451.826 132.001h9.023v33.932q-6.227 5.465-14.742 8.388t-17.92 2.923q-13.343 0-24.018-5.846t-16.776-16.14q-6.1-10.42-6.1-23.257 0-12.835 6.1-23.129 6.1-10.421 16.776-16.267 10.675-5.846 24.146-5.846 10.167 0 18.681 3.304 8.515 3.177 14.361 9.532l-5.846 5.973q-10.548-10.421-26.815-10.421-10.802 0-19.571 4.829-8.642 4.702-13.598 13.217-4.956 8.387-4.956 18.808t4.956 18.81q4.956 8.387 13.598 13.216 8.642 4.83 19.444 4.83 13.725 0 23.257-6.863zM561.81 87.522v88.96h-7.752l-57.189-72.185v72.184h-9.404v-88.96h7.752l57.316 72.185V87.522zM590.722 87.522h9.404v88.96h-9.404z"/></g></g></svg>